<?xml version="1.0" encoding="iso-8859-1"?>
<!-- Generator: Adobe Illustrator 18.1.1, SVG Export Plug-In . SVG Version: 6.00 Build 0)  -->
<svg version="1.1" id="Capa_1" xmlns="http://www.w3.org/2000/svg" xmlns:xlink="http://www.w3.org/1999/xlink" x="0px" y="0px"
	 viewBox="0 0 33.943 33.943" style="enable-background:new 0 0 33.943 33.943;" xml:space="preserve">
<g>
	<path style="fill:#9d9c9c;" d="M17.59,10.041c0-0.745-0.605-1.351-1.353-1.351c-0.75,0-1.357,0.606-1.357,1.351v6.065v2.704v0.004
		h2.707l0,0h6.068c0.744,0,1.352-0.605,1.352-1.354c0-0.747-0.607-1.353-1.352-1.353h-6.068L17.59,10.041z"/>
	<path style="fill:#9d9c9c;" d="M28.37,7.287l3,2.999l2.573-2.568c0,0-2.315-4.541-7.717-7.716l-2.571,2.572l3,2.998l0,0
		l0.001,0.001l-0.653,0.652c-2.754-2.363-6.327-3.801-10.245-3.801C7.056,2.423,0,9.48,0,18.186c0,8.701,7.056,15.756,15.759,15.756
		c8.705,0,15.76-7.056,15.76-15.756c0-3.916-1.438-7.491-3.798-10.246L28.37,7.287z M15.767,29.17
		c-6.033,0-10.943-4.906-10.943-10.938c0-6.04,4.911-10.949,10.943-10.949c6.037,0,10.943,4.91,10.943,10.949
		C26.709,24.264,21.804,29.17,15.767,29.17z"/>
</g>
<g>
</g>
<g>
</g>
<g>
</g>
<g>
</g>
<g>
</g>
<g>
</g>
<g>
</g>
<g>
</g>
<g>
</g>
<g>
</g>
<g>
</g>
<g>
</g>
<g>
</g>
<g>
</g>
<g>
</g>
</svg>
